# xmcd
#
# Track frame offsets: 
#        182
#        14420
#        28020
#        40415
#        52237
#        71582
#
# Disc length: 1170 seconds
#
# Revision: 0
# Processed by: cddbd v1.5.2PL0 Copyright (c) Steve Scherf et al.
# Submitted via: ExactAudioCopy v0.99pb5
#
DISCID=52049006
DTITLE=Stompin' Tom Connors - Selections From Dr. Stompin' Tom...eh?
DYEAR=1993
DGENRE=Country
TTITLE0=Football Song
TTITLE1=Old Flat -Top Guitar
TTITLE2=Blue Berets
TTITLE3=Let's Smile Again
TTITLE4=Suzanne De LaFayette
TTITLE5=Shakin' The Blues
EXTD=
EXTT0=
EXTT1=
EXTT2=
EXTT3=
EXTT4=
EXTT5=
PLAYORDER=
